<?xml version="1.0" encoding="UTF-8" standalone="no"?>
<!-- Uploaded to: SVG Repo, www.svgrepo.com, Generator: SVG Repo Mixer Tools -->

<svg
   fill="#000000"
   version="1.1"
   id="Layer_1"
   viewBox="0 0 512 512"
   xml:space="preserve"
   sodipodi:docname="logo.svg"
   width="512"
   height="512"
   inkscape:version="1.4 (86a8ad7, 2024-10-11)"
   inkscape:export-filename="logo.png"
   inkscape:export-xdpi="96"
   inkscape:export-ydpi="96"
   xmlns:inkscape="http://www.inkscape.org/namespaces/inkscape"
   xmlns:sodipodi="http://sodipodi.sourceforge.net/DTD/sodipodi-0.dtd"
   xmlns="http://www.w3.org/2000/svg"
   xmlns:svg="http://www.w3.org/2000/svg"><defs
   id="defs11">
	

		
	</defs><sodipodi:namedview
   id="namedview11"
   pagecolor="#ffffff"
   bordercolor="#000000"
   borderopacity="0.25"
   inkscape:showpageshadow="2"
   inkscape:pageopacity="0.0"
   inkscape:pagecheckerboard="0"
   inkscape:deskcolor="#d1d1d1"
   inkscape:zoom="1.1020031"
   inkscape:cx="264.97203"
   inkscape:cy="243.64723"
   inkscape:window-width="1920"
   inkscape:window-height="991"
   inkscape:window-x="-9"
   inkscape:window-y="-9"
   inkscape:window-maximized="1"
   inkscape:current-layer="Layer_1" />

<g
   id="g14"><g
     id="g13"><path
       style="fill:#55d400;stroke:none;stroke-width:0.674"
       d="m 149.50582,78.923674 -33.68693,33.686936 v 314.73221 h 313.4489 V 80.206986 Z"
       id="path13" /><rect
       style="fill:#ac9393;stroke:none;stroke-width:0.674"
       id="rect11"
       width="64.881851"
       height="271.77783"
       x="307.62164"
       y="122.50419" /><rect
       style="fill:#484537;stroke:none;stroke-width:0.192773"
       id="rect11-4-8-8"
       width="64.881851"
       height="22.232256"
       x="153.2356"
       y="249.79671" /><rect
       style="fill:#6c6753;stroke:none;stroke-width:0.140535"
       id="rect11-4"
       width="34.482662"
       height="22.232256"
       x="220.22386"
       y="127.6496" /><rect
       style="fill:#6c6753;stroke:none;stroke-width:0.140535"
       id="rect11-4-8"
       width="34.482662"
       height="22.232256"
       x="220.89165"
       y="187.15785" /><rect
       style="fill:#e6e6e6;stroke:none;stroke-width:0.523259"
       id="rect12-0"
       width="80.714478"
       height="37.809437"
       x="80.680672"
       y="312.39392" /><rect
       style="fill:#e6e6e6;stroke:none;stroke-width:0.674"
       id="rect12"
       width="78.039711"
       height="64.881851"
       x="84.391777"
       y="142.01411" /><g
       id="g9"
       transform="matrix(0.72580645,0,0,0.72580645,76,76)">
			<path
   d="M 92.688,0 48,44.688 V 80 H 0 V 192 H 48 V 320 H 0 v 64 H 48 V 496 H 496 V 0 Z M 16,176 V 96 h 96 v 80 z m 0,192 v -32 h 96 v 32 z M 480,480 H 64 v -96 h 64 v -24 h 16 V 344 H 128 V 320 H 64 V 192 h 64 v -16 h 16 v -16 h -16 v -48 h 16 V 96 H 128 V 80 H 64 V 51.312 L 99.312,16 H 480 Z"
   id="path1" />
			<path
   d="m 304,448 h 112 v -16 h 16 v -16 h -16 v -16 h 16 v -16 h -16 v -16 h 16 v -16 h -16 v -16 h 16 v -16 h -16 v -16 h 16 v -16 h -16 v -16 h 16 v -16 h -16 v -16 h 16 v -16 h -16 v -16 h 16 v -16 h -16 v -16 h 16 v -16 h -16 v -16 h 16 v -16 h -16 v -16 h 16 V 96 H 416 V 80 h 16 V 64 H 416 V 48 H 304 v 16 h -16 v 16 h 16 v 16 h -16 v 16 h 16 v 16 h -16 v 16 h 16 v 16 h -16 v 16 h 16 v 16 h -16 v 16 h 16 v 16 h -16 v 16 h 16 v 16 h -16 v 16 h 16 v 16 h -16 v 16 h 16 v 16 h -16 v 16 h 16 v 16 h -16 v 16 h 16 v 16 h -16 v 16 h 16 v 16 h -16 v 16 h 16 z M 320,64 h 80 v 368 h -80 z"
   id="path2" />
			<circle
   cx="360"
   cy="88"
   r="8"
   id="circle2" />
			<path
   d="m 256,64 h -64 v 48 h 64 z M 240,96 H 208 V 80 h 32 z"
   id="path3" />
			<path
   d="m 256,144 h -64 v 48 h 64 z m -16,32 h -32 v -16 h 32 z"
   id="path4" />
			<path
   d="m 144,216 v 16 h -16 v -16 h -16 v 16 H 96 v 48 h 16 v 16 h 16 v -16 h 16 v 16 h 16 v -16 h 16 v 16 h 16 v -16 h 16 v -48 h -16 v -16 h -16 v 16 h -16 v -16 z m 48,32 v 16 h -80 v -16 z"
   id="path5" />
			<path
   d="m 112,400 c -17.648,0 -32,14.352 -32,32 0,17.648 14.352,32 32,32 17.648,0 32,-14.352 32,-32 0,-17.648 -14.352,-32 -32,-32 z m 0,48 c -8.824,0 -16,-7.176 -16,-16 0,-8.824 7.176,-16 16,-16 8.816,0 16,7.176 16,16 0,8.824 -7.184,16 -16,16 z"
   id="path6" />
			<path
   d="m 192,400 c -17.648,0 -32,14.352 -32,32 0,17.648 14.352,32 32,32 17.648,0 32,-14.352 32,-32 0,-17.648 -14.352,-32 -32,-32 z m 0,48 c -8.824,0 -16,-7.176 -16,-16 0,-8.824 7.176,-16 16,-16 8.816,0 16,7.176 16,16 0,8.824 -7.184,16 -16,16 z"
   id="path7" />
			<rect
   x="176"
   y="336"
   width="16"
   height="32"
   id="rect7" />
			<rect
   x="208"
   y="336"
   width="16"
   height="32"
   id="rect8" />
			<rect
   x="240"
   y="336"
   width="16"
   height="32"
   id="rect9" />
			<circle
   cx="96"
   cy="48"
   r="8"
   id="circle9" />
		</g><circle
       style="fill:#ff6600;stroke:none;stroke-width:0.674"
       id="path12"
       cx="157.66743"
       cy="389.06424"
       r="14.745875" /><circle
       style="fill:#ff6600;stroke:none;stroke-width:0.674"
       id="path12-9"
       cx="215.60956"
       cy="390.38474"
       r="14.745875" /></g><text
     xml:space="preserve"
     style="font-weight:bold;font-size:54.2371px;font-family:'Comic Sans MS';-inkscape-font-specification:'Comic Sans MS Bold';text-align:center;writing-mode:lr-tb;direction:ltr;text-anchor:middle;fill:#55d400;stroke:none;stroke-width:3.04632"
     x="-256.73734"
     y="353.91785"
     id="text13"
     transform="rotate(-90)"><tspan
       sodipodi:role="line"
       id="tspan13"
       x="-256.73734"
       y="353.91785"
       style="font-style:normal;font-variant:normal;font-weight:bold;font-stretch:normal;font-family:'Courier New';-inkscape-font-specification:'Courier New Bold';fill:#000000;stroke-width:3.04632">ASM</tspan></text></g></svg>
